<svg width="24" height="24" fill="none" xmlns="http://www.w3.org/2000/svg"><path fill-rule="evenodd" clip-rule="evenodd" d="M12 1.9a10.1 10.1 0 00-3.2 19.69c.5.1.7-.22.7-.49l-.02-1.72c-2.8.61-3.4-1.35-3.4-1.35-.46-1.17-1.13-1.48-1.13-1.48-.92-.62.07-.61.07-.61 1.01.07 1.55 1.04 1.55 1.04.9 1.55 2.37 1.1 2.94.84.1-.65.36-1.1.64-1.35-2.24-.26-4.6-1.13-4.6-5 0-1.1.39-2 1.04-2.7-.1-.26-.45-1.3.1-2.68 0 0 .85-.27 2.78 1.03a9.8 9.8 0 015.06 0c1.93-1.3 2.78-1.03 2.78-1.03.55 1.39.2 2.42.1 2.67a3.9 3.9 0 011.04 2.71c0 3.89-2.37 4.74-4.62 4.99.36.31.69.93.69 1.87l-.01 2.78c0 .27.18.58.7.48A10.1 10.1 0 0012 1.89z" fill="#191717"/></svg>